# Blender 5.1.2
# www.blender.org
mtllib ceramic_pot_1k.mtl
o ceramic_pot
v 0.195157 0.000054 0.060696
v 0.134199 0.000389 0.154112
v -0.202482 0.000038 -0.017431
v 0.181320 0.000013 -0.093662
v 0.202548 0.000155 -0.017529
v 0.044619 0.000175 -0.198510
v 0.041778 0.000193 0.200044
v 0.119143 0.000872 -0.164141
v 0.189547 0.014167 0.090376
v 0.209469 0.014314 0.018074
v 0.202031 0.014110 -0.056326
v 0.171122 0.014103 -0.121093
v 0.123921 0.015679 -0.173698
v 0.015118 0.013828 0.211211
v 0.028155 0.013372 -0.209565
v 0.117792 0.016215 0.180902
v 0.147701 0.014112 0.149441
v 0.227898 0.025419 -0.034850
v 0.190915 0.025275 -0.126447
v 0.042940 0.023789 0.226080
v 0.042940 0.023789 -0.225364
v 0.190915 0.025275 0.127162
v 0.222923 0.025162 0.055400
v 0.053861 0.286916 -0.193716
v 0.053861 0.286916 0.194431
v 0.115811 0.287076 0.164652
v 0.164925 0.286904 0.115106
v 0.194225 0.286904 0.051778
v 0.200099 0.286904 -0.017752
v 0.181837 0.286904 -0.085098
v 0.129791 0.286793 -0.154512
v -0.014435 0.286536 0.202405
v 0.014927 0.314524 0.192757
v 0.103923 0.311496 0.096346
v 0.163535 0.314467 0.094775
v 0.182509 0.314602 -0.043858
v 0.119041 0.311854 -0.127208
v 0.019777 0.314901 -0.076781
v 0.006121 0.321176 -0.064343
v 0.019778 0.314901 0.077497
v 0.006121 0.321176 0.065059
v 0.081685 0.315323 0.000358
v 0.050134 0.321097 0.041655
v 0.065402 0.321353 -0.000960
v 0.037663 0.321321 -0.053241
v 0.068892 0.349511 0.028131
v 0.070108 0.349007 -0.023797
v 0.050591 0.338492 -0.047943
v 0.035655 0.348160 0.063874
v 0.058339 0.359307 0.034252
v 0.065122 0.359527 -0.014647
v 0.031989 0.350502 -0.065678
v 0.029446 0.359277 -0.061842
v 0.005188 0.348915 0.073648
v 0.016625 0.370676 0.039616
v 0.043033 0.370956 -0.005533
v 0.018122 0.359729 0.064542
v 0.009956 0.370720 -0.041022
v -0.000000 0.357871 0.000362
v 0.030673 0.229395 0.199289
v 0.015421 0.211696 0.215819
v 0.091909 0.213499 0.190439
v 0.141666 0.229482 0.142063
v 0.134880 0.208688 0.174958
v 0.172991 0.229698 0.100234
v 0.193554 0.229482 0.052192
v 0.204101 0.208720 0.081449
v 0.199609 0.229482 -0.017134
v 0.220090 0.209026 -0.016359
v 0.181589 0.229482 -0.084349
v 0.141666 0.229482 -0.141348
v 0.183766 0.208497 -0.118969
v 0.086807 0.229472 -0.180147
v 0.112840 0.208785 -0.188080
v 0.021401 0.230055 -0.200200
v 0.015860 0.208678 -0.219473
v 0.087460 0.233017 0.180103
v 0.114530 0.322906 0.162818
v 0.038064 0.325404 0.200749
v 0.173438 0.323429 0.100493
v 0.200053 0.322901 0.000358
v 0.173438 0.323429 -0.099777
v 0.089203 0.322879 -0.180091
v -0.014304 0.323364 -0.200005
v 0.040522 0.303838 0.215638
v 0.140021 0.312883 0.174044
v 0.075296 0.314661 0.210341
v 0.191080 0.313144 0.115557
v 0.220276 0.312436 0.036539
v 0.215633 0.313047 -0.054478
v 0.183874 0.313047 -0.124922
v 0.128322 0.313064 -0.181659
v 0.041403 0.312004 -0.220123
v 0.243857 0.061397 -0.061654
v 0.252197 0.068436 0.006102
v 0.241916 0.060416 0.067450
v 0.203280 0.057439 0.145424
v 0.142794 0.054339 0.204438
v -0.000000 0.068180 -0.251707
v 0.065421 0.054881 -0.240756
v -0.017513 0.045109 -0.244901
v 0.065421 0.054881 0.241472
v 0.142794 0.054339 -0.203723
v 0.018734 0.055964 0.250310
v 0.203280 0.057439 -0.144709
v 0.108054 0.205006 0.220875
v 0.158398 0.203640 0.187292
v 0.226191 0.205424 0.089482
v 0.197295 0.205115 0.145714
v 0.242835 0.206057 0.014660
v 0.241004 0.190134 0.071143
v 0.233551 0.205740 -0.069433
v 0.246156 0.177792 0.045503
v 0.247184 0.181388 -0.047605
v 0.197021 0.205236 -0.145332
v 0.241239 0.190890 -0.063236
v 0.237524 0.175921 -0.084726
v 0.142346 0.204948 -0.199834
v 0.024995 0.205237 -0.244267
v 0.067790 0.202754 -0.236876
v -0.026448 0.205181 0.244427
v -0.142805 0.205452 0.200091
v 0.238152 0.147050 0.085826
v 0.247028 0.146199 -0.045460
v 0.241658 0.133462 -0.073126
v 0.289077 0.146762 -0.075661
v 0.285723 0.141490 -0.029617
v 0.063436 0.321962 -0.204669
v 0.178073 0.322262 -0.118634
v 0.212898 0.322262 0.023668
v 0.151191 0.322450 0.150699
v -0.014304 0.323364 0.200721
v 0.032599 0.205126 0.245386
v 0.281703 0.162060 -0.027586
v 0.283598 0.182463 -0.034176
v 0.327232 0.144084 0.009768
v 0.305794 0.133907 -0.029254
v 0.317524 0.147004 -0.042496
v 0.293016 0.141201 0.021102
v 0.315512 0.190161 -0.014803
v 0.285005 0.182844 -0.072986
v 0.282220 0.190770 -0.054457
v 0.242986 0.132942 0.066994
v 0.289082 0.146711 0.076363
v 0.245930 0.141119 0.051451
v 0.296998 0.133442 0.041923
v 0.293608 0.190889 0.048450
v 0.272549 0.176680 0.036231
v 0.284923 0.182819 0.073740
v 0.292423 0.176576 0.008113
v 0.317551 0.176853 0.042645
v -0.195162 0.000057 0.060682
v -0.134180 0.000389 0.154132
v -0.181320 0.000013 -0.093662
v -0.046053 0.000138 -0.197996
v -0.042756 0.000221 0.199754
v -0.119143 0.000872 -0.164141
v -0.208288 0.014457 0.039032
v -0.202031 0.014110 -0.056326
v -0.171122 0.014103 -0.121093
v -0.091414 0.014066 -0.191280
v -0.056090 0.014130 0.203136
v -0.148729 0.016448 0.157835
v -0.172822 0.014072 0.119304
v -0.229527 0.026429 -0.022371
v -0.186449 0.022309 -0.131184
v -0.068133 0.024578 -0.220556
v -0.068133 0.024578 0.221272
v -0.219548 0.025182 0.070349
v -0.086721 0.286958 -0.180824
v -0.014435 0.286536 -0.201689
v -0.086721 0.286958 0.181540
v -0.141644 0.286904 0.142852
v -0.181837 0.286904 0.085814
v -0.202510 0.287465 0.000358
v -0.181837 0.286904 -0.085098
v -0.141644 0.286904 -0.142136
v -0.132655 0.314550 -0.131560
v -0.064011 0.312070 -0.122914
v 0.014927 0.314524 -0.192041
v -0.132967 0.312239 0.121776
v -0.064695 0.314057 0.052445
v -0.187881 0.313595 0.000358
v -0.023903 0.321016 -0.060227
v -0.029309 0.321086 0.058955
v -0.064766 0.320979 0.006024
v -0.065790 0.315096 -0.047123
v -0.054340 0.321302 -0.034463
v -0.058516 0.321662 0.028145
v -0.060125 0.354627 0.041810
v -0.071799 0.348974 0.013947
v -0.070108 0.349007 -0.023797
v -0.042833 0.349222 -0.059485
v -0.005157 0.347746 -0.073498
v -0.030928 0.348064 0.067311
v -0.022959 0.360039 0.063414
v -0.065208 0.359601 -0.019759
v -0.025269 0.359504 -0.061964
v -0.034877 0.370864 0.026972
v -0.033968 0.370837 -0.024979
v -0.057556 0.213518 0.204061
v -0.115441 0.229554 0.164077
v -0.157005 0.208668 0.156557
v -0.152841 0.229299 0.128607
v -0.181589 0.229482 0.085065
v -0.210764 0.208650 0.063112
v -0.196719 0.229698 0.035045
v -0.199609 0.229482 -0.017134
v -0.211458 0.209007 -0.065307
v -0.181589 0.229482 -0.084349
v -0.141666 0.229482 -0.141348
v -0.134195 0.212437 -0.166372
v -0.057556 0.213518 -0.203345
v -0.037086 0.230500 0.199376
v -0.087460 0.233017 -0.179387
v -0.030619 0.233248 -0.198192
v -0.085489 0.323205 0.179929
v -0.179930 0.323209 0.085273
v -0.198121 0.323209 0.018612
v -0.187988 0.322901 -0.068064
v -0.050252 0.325015 -0.199120
v -0.022938 0.313857 0.223325
v -0.093834 0.313054 0.202024
v -0.155306 0.313047 0.159683
v -0.200432 0.313047 0.096957
v -0.223522 0.312197 0.004831
v -0.183874 0.313047 -0.124922
v -0.115070 0.313092 -0.191710
v -0.022938 0.313857 -0.222609
v -0.243820 0.061148 -0.061475
v -0.252186 0.068374 0.005721
v -0.242021 0.066114 0.070344
v -0.202876 0.055334 0.145496
v -0.106310 0.054877 0.225631
v -0.158924 0.054217 0.190968
v -0.065823 0.065327 -0.241778
v -0.035473 0.056290 0.248740
v -0.112331 0.052682 -0.220729
v -0.202600 0.057873 -0.145963
v -0.158980 0.054228 -0.190221
v -0.067790 0.202754 0.237592
v -0.219610 0.205508 0.107077
v -0.187062 0.203474 0.157970
v -0.244998 0.205021 0.009206
v -0.238207 0.161124 0.086363
v -0.240774 0.189678 0.072429
v -0.233890 0.205997 -0.066916
v -0.246081 0.177879 0.045410
v -0.198205 0.204803 -0.143568
v -0.242854 0.190395 -0.057555
v -0.237656 0.177813 -0.084213
v -0.122737 0.204893 -0.210921
v -0.158505 0.203618 -0.186521
v -0.062676 0.205503 -0.238241
v -0.033242 0.198648 -0.245823
v -0.241539 0.133387 0.073679
v -0.274433 0.141598 -0.040234
v -0.302302 0.133899 -0.042109
v -0.289040 0.146646 -0.075722
v -0.241610 0.133722 -0.073433
v -0.142918 0.325705 -0.143333
v -0.213644 0.316311 -0.061593
v -0.210086 0.321941 0.037402
v -0.151546 0.325038 0.133702
v -0.077171 0.322309 0.201430
v -0.246935 0.146607 -0.044513
v -0.283598 0.182463 -0.034176
v -0.281430 0.162435 -0.028049
v -0.327235 0.144130 0.009887
v -0.317541 0.146970 -0.042437
v -0.294631 0.140978 -0.009993
v -0.321583 0.184329 -0.017416
v -0.286837 0.182593 -0.071555
v -0.305311 0.190266 -0.037521
v -0.289120 0.146684 0.076320
v -0.245930 0.141119 0.051451
v -0.296998 0.133442 0.041923
v -0.285436 0.141600 0.030417
v -0.271494 0.176572 0.036992
v -0.292738 0.190903 0.049911
v -0.286554 0.182672 0.072458
v -0.292467 0.176797 0.008429
v -0.317589 0.176915 0.042546
vn 0.6161 -0.7649 0.1879
vn 0.3853 -0.8371 0.3883
vn -0.6521 -0.7566 -0.0489
vn 0.5712 -0.7681 -0.2894
vn 0.6186 -0.7835 -0.0588
vn -0.1196 -0.7126 -0.6913
vn 0.1677 -0.8396 -0.5167
vn 0.1618 -0.7792 0.6055
vn 0.2422 -0.9632 0.1164
vn 0.8964 -0.4351 0.0846
vn 0.4709 -0.4191 0.7762
vn -0.7036 -0.6810 -0.2027
vn -0.5709 -0.7683 -0.2896
vn 0.7000 -0.7120 0.0552
vn 0.5932 -0.7409 0.3148
vn -0.4980 -0.7696 -0.3996
vn -0.4288 -0.7443 -0.5120
vn -0.6058 -0.6892 0.3974
vn -0.3051 -0.8625 0.4038
vn -0.5229 -0.6562 0.5441
vn 0.0188 -0.7273 0.6861
vn -0.1201 -0.8083 0.5764
vn -0.3532 -0.6924 -0.6291
vn 0.9183 -0.2919 0.2675
vn 0.7658 -0.2958 0.5710
vn 0.5713 -0.7224 0.3895
vn -0.6953 -0.7121 0.0970
vn -0.5805 -0.7819 0.2273
vn -0.6767 -0.7013 0.2241
vn 0.7004 -0.7069 -0.0985
vn 0.6641 -0.7190 -0.2052
vn 0.6805 -0.7149 0.1607
vn 0.1441 -0.7503 0.6452
vn 0.3956 -0.6631 0.6354
vn 0.0438 0.9818 -0.1847
vn 0.0087 0.9998 0.0183
vn -0.9240 0.3513 -0.1513
vn -0.1166 0.5957 0.7947
vn -0.2132 0.7928 0.5709
vn -0.2481 0.9196 0.3045
vn 0.1049 0.6662 0.7384
vn 0.2653 0.9263 0.2676
vn -0.1871 0.9629 0.1945
vn 0.1870 0.9824 0.0033
vn -0.0177 0.9996 -0.0220
vn 0.7572 -0.1537 0.6349
vn 0.0532 0.9796 0.1937
vn -0.7514 0.4715 -0.4616
vn -0.9993 -0.0367 0.0056
vn -0.1192 0.9883 0.0948
vn 0.6818 0.0088 -0.7315
vn 0.9195 0.1352 -0.3691
vn 0.8640 0.4999 -0.0599
vn 0.7624 -0.1808 -0.6213
vn -0.6248 0.1685 -0.7624
vn -0.3667 0.0340 -0.9297
vn 0.4492 0.1156 -0.8859
vn -0.0423 0.1638 -0.9856
vn 0.0871 0.4413 -0.8931
vn -0.6301 0.7544 -0.1841
vn -0.9327 0.1379 -0.3333
vn -0.9552 0.2354 0.1794
vn 0.5781 0.7127 0.3973
vn 0.5264 0.1286 0.8405
vn 0.9242 0.1672 0.3434
vn -0.6583 -0.3564 0.6631
vn -0.5062 0.2972 0.8096
vn -0.3966 -0.3549 0.8466
vn -0.2156 0.7330 0.6452
vn -0.7605 0.3845 0.5232
vn -0.4364 0.0854 0.8957
vn 0.0358 0.9861 -0.1624
vn 0.3302 0.7104 -0.6215
vn -0.2697 0.7041 -0.6569
vn -0.1368 0.9845 -0.1097
vn -0.1796 0.9774 0.1119
vn 0.6747 0.7245 -0.1410
vn 0.1820 0.9828 -0.0313
vn 0.0752 0.9847 0.1572
vn 0.2095 0.7232 0.6581
vn -0.8314 0.4217 0.3619
vn -0.3936 0.2110 0.8948
vn 0.0006 1.0000 -0.0037
vn -0.1983 0.2548 0.9464
vn -0.4517 0.8894 0.0696
vn -0.8450 0.3422 0.4110
vn -0.9403 0.3106 0.1389
vn -0.7077 0.2938 -0.6425
vn -0.4428 0.2406 -0.8638
vn -0.4010 0.8026 -0.4417
vn 0.4468 0.8928 -0.0567
vn 0.9104 0.3506 0.2199
vn 0.3467 0.9204 0.1806
vn -0.1705 0.7257 -0.6666
vn 0.1173 0.3352 -0.9348
vn 0.0775 0.9073 -0.4133
vn -0.8378 0.3149 -0.4461
vn -0.3261 0.9363 -0.1302
vn -0.9518 0.2980 -0.0725
vn 0.2796 -0.3585 -0.8907
vn 0.3892 0.3526 -0.8510
vn 0.7669 -0.3647 0.5281
vn 0.6805 0.3226 0.6580
vn 0.8115 0.3161 0.4915
vn -0.7222 0.3811 0.5772
vn 0.6059 -0.3545 -0.7122
vn 0.6796 0.3213 -0.6595
vn -0.0459 0.9816 -0.1853
vn -0.0944 0.7827 0.6152
vn 0.0399 0.7720 0.6344
vn 0.2014 0.9599 -0.1950
vn -0.0540 0.9982 0.0257
vn 0.0619 0.9914 -0.1157
vn 0.2820 0.9457 -0.1615
vn -0.3382 0.9221 -0.1881
vn -0.0898 0.9809 -0.1726
vn -0.0217 0.9993 -0.0304
vn 0.4237 0.9055 0.0218
vn 0.0021 1.0000 0.0069
vn 0.1650 0.9843 -0.0632
vn -0.4318 0.6570 0.6181
vn -0.7613 -0.3342 0.5557
vn -0.6046 -0.3255 0.7270
vn -0.8151 0.1730 -0.5530
vn -0.8567 -0.3369 -0.3906
vn -0.9190 0.3010 -0.2546
vn -0.5071 0.1698 -0.8450
vn -0.3944 -0.3497 -0.8498
vn -0.6576 -0.3397 -0.6724
vn 0.9366 -0.3428 -0.0726
vn 0.9810 0.0332 0.1912
vn 0.8989 -0.3569 0.2542
vn 0.4038 0.1790 0.8971
vn 0.1617 -0.3948 0.9044
vn 0.6027 0.1033 0.7912
vn 0.7677 -0.2941 -0.5694
vn 0.9226 -0.2797 -0.2657
vn 0.5933 -0.7076 -0.3839
vn -0.6139 0.5908 0.5235
vn -0.6230 0.6959 0.3571
vn -0.6346 0.0320 0.7722
vn -0.0703 -0.4725 -0.8785
vn -0.2809 -0.1929 -0.9401
vn 0.0206 -0.1256 -0.9919
vn -0.5911 -0.3410 -0.7310
vn -0.5514 -0.7393 -0.3864
vn -0.7868 -0.2604 -0.5596
vn 0.2972 -0.3049 -0.9048
vn 0.2391 0.8768 -0.4171
vn 0.5925 0.6536 -0.4710
vn 0.4472 0.6357 -0.6292
vn -0.7309 0.6823 0.0129
vn 0.7413 0.4544 -0.4939
vn 0.5993 0.6558 0.4591
vn 0.6956 0.7178 0.0295
vn 0.6582 0.6202 0.4267
vn 0.6952 0.6795 -0.2344
vn 0.6698 0.2273 -0.7069
vn 0.6053 0.7708 -0.1987
vn 0.5948 0.6564 0.4641
vn 0.5833 0.7665 0.2689
vn 0.4025 0.8789 -0.2561
vn -0.5153 0.6092 -0.6027
vn -0.5888 0.6697 -0.4525
vn -0.3843 0.6533 -0.6523
vn -0.2384 0.6806 -0.6928
vn -0.2580 0.5744 0.7769
vn -0.1350 -0.2900 0.9474
vn -0.0957 0.3147 -0.9444
vn 0.0862 0.6573 -0.7487
vn -0.4355 -0.3061 0.8465
vn 0.6980 -0.0841 0.7111
vn -0.7961 -0.3221 -0.5124
vn -0.9177 -0.2965 -0.2644
vn 0.7943 -0.3274 -0.5118
vn -0.1456 0.1773 -0.9733
vn -0.1769 0.8543 0.4888
vn -0.4638 0.0335 0.8853
vn -0.1119 0.2033 0.9727
vn -0.0425 0.9973 0.0602
vn 0.3425 0.8832 0.3204
vn -0.5335 0.8377 0.1168
vn -0.0586 0.9970 -0.0504
vn -0.9952 0.0967 0.0129
vn -0.8836 0.1801 0.4321
vn 0.4876 0.8728 0.0228
vn -0.1133 0.9932 -0.0248
vn 0.1788 0.0621 -0.9819
vn -0.0952 -0.3376 -0.9365
vn -0.1221 0.2000 -0.9721
vn 0.0521 0.1512 0.9871
vn -0.2175 -0.7358 0.6413
vn 0.0643 0.4215 0.9046
vn 0.5447 -0.3408 0.7663
vn 0.4310 0.2357 0.8710
vn -0.0203 0.9980 0.0591
vn 0.1537 -0.7297 -0.6663
vn 0.0516 -0.7514 -0.6578
vn -0.2098 -0.7182 -0.6634
vn 0.0454 0.7046 -0.7082
vn 0.1942 0.8445 -0.4991
vn -0.3854 0.5574 0.7354
vn -0.6850 0.5982 0.4159
vn -0.1380 0.9874 0.0774
vn 0.3534 -0.7319 0.5826
vn -0.7992 -0.3210 0.5081
vn 0.7772 0.0072 0.6292
vn 0.6856 -0.5706 -0.4521
vn 0.4990 0.4826 -0.7198
vn -0.7634 -0.5112 -0.3949
vn 0.7654 -0.4223 0.4856
vn 0.9723 -0.2326 0.0247
vn -0.2587 -0.9525 -0.1606
vn -0.8538 -0.2985 -0.4264
vn -0.4688 -0.3645 -0.8046
vn -0.2169 -0.7246 0.6541
vn 0.3195 -0.8346 -0.4487
vn 0.5462 -0.7255 -0.4187
vn -0.4114 0.5904 -0.6944
vn -0.6949 0.3030 -0.6522
vn 0.4945 -0.3874 -0.7781
vn 0.4862 0.6548 0.5786
vn -0.3762 0.8985 -0.2262
vn 0.9420 0.3029 -0.1442
vn 0.5307 0.8394 -0.1170
vn 0.1514 0.9859 0.0708
vn 0.8462 0.3581 0.3946
vn -0.8696 0.4745 -0.1367
vn -0.5245 0.6685 0.5272
vn 0.8314 -0.5489 0.0865
vn -0.5687 -0.6644 0.4849
vn 0.2162 -0.9716 -0.0966
vn -0.7827 -0.5512 -0.2889
vn 0.5666 -0.6568 0.4975
vn 0.2935 -0.3710 0.8810
vn 0.1763 0.3116 0.9337
vn -0.4765 0.8709 0.1204
vn -0.0292 0.8944 -0.4463
vn 0.1678 0.7207 0.6727
vn 0.8591 0.3379 -0.3843
vn 0.0505 -0.2947 0.9543
vn 0.2521 0.9334 0.2553
vn -0.0948 0.9925 0.0771
vn -0.0769 -0.3441 0.9358
vn 0.8190 0.0136 -0.5736
vn 0.8422 -0.3491 -0.4108
vn 0.9519 0.1940 -0.2374
vn -0.9726 -0.2307 0.0305
vn 0.3298 0.6513 0.6834
vn 0.5087 0.6125 0.6050
vn -0.8750 -0.4740 0.0987
vn -0.7641 0.4395 -0.4723
vn -0.6166 0.7621 -0.1978
vn -0.7255 0.6850 -0.0669
vn 0.2610 0.5744 -0.7758
vn 0.5503 -0.3215 0.7706
vn 0.3076 -0.3001 0.9030
vn -0.8298 -0.3662 0.4212
vn -0.9297 -0.2494 0.2709
vn 0.5475 0.2032 -0.8118
vn -0.6870 0.1630 0.7081
vn 0.3897 0.8838 -0.2588
vn -0.9249 -0.3801 0.0009
vn 0.7961 -0.5140 0.3194
vn -0.7906 0.0397 0.6110
vn 0.7429 -0.5249 -0.4155
vn -0.2138 -0.9665 0.1419
vn -0.4717 -0.3799 0.7957
vn -0.8258 0.4077 0.3897
vn -0.8245 0.5502 -0.1325
vn 0.3577 0.5489 0.7555
vn -0.5019 0.4924 -0.7111
vn 0.4319 0.5666 -0.7017
vn 0.4512 -0.6091 -0.6522
vn -0.7116 -0.6999 -0.0616
vn -0.8558 -0.3515 0.3796
vn 0.2960 0.6408 0.7083
vn 0.9167 0.3908 -0.0830
vn 0.8585 0.1852 0.4782
vn 0.5443 -0.3228 -0.7743
vn -0.4603 -0.3452 -0.8179
vn 0.0763 0.9967 -0.0288
vn 0.8515 -0.2958 -0.4331
vt 0.332489 0.988981
vt 0.266620 0.953758
vt 0.404379 0.694545
vt 0.460911 0.963393
vt 0.404388 0.991839
vt 0.510857 0.798440
vt 0.508986 0.893932
vt 0.228835 0.887267
vt 0.593392 0.835151
vt 0.572871 0.865473
vt 0.572800 0.816991
vt 0.128066 0.201686
vt 0.141007 0.170115
vt 0.140429 0.228374
vt 0.128067 0.709908
vt 0.128087 0.657301
vt 0.141032 0.677940
vt 0.128108 0.149457
vt 0.140236 0.097478
vt 0.128090 0.331207
vt 0.140356 0.371303
vt 0.128052 0.387680
vt 0.128073 0.493039
vt 0.140007 0.451126
vt 0.140245 0.513316
vt 0.128057 0.070255
vt 0.140694 0.035209
vt 0.397134 0.280359
vt 0.407883 0.229485
vt 0.427834 0.241519
vt 0.128071 0.268026
vt 0.141034 0.285788
vt 0.657592 0.212127
vt 0.627956 0.189332
vt 0.607246 0.170332
vt 0.432350 0.332943
vt 0.431252 0.302812
vt 0.446048 0.342705
vt 0.421528 0.284279
vt 0.433020 0.250423
vt 0.494482 0.166490
vt 0.510316 0.166677
vt 0.458436 0.196797
vt 0.274050 0.709312
vt 0.224330 0.658535
vt 0.274050 0.610340
vt 0.117104 0.964066
vt 0.091423 0.939772
vt 0.096290 0.854731
vt 0.105132 0.011286
vt 0.117475 0.012588
vt 0.101333 0.095109
vt 0.197043 0.093830
vt 0.274050 0.181257
vt 0.229712 0.266415
vt 0.346547 0.661963
vt 0.392358 0.674783
vt 0.298869 0.641536
vt 0.390083 0.531879
vt 0.390682 0.520412
vt 0.424600 0.562189
vt 0.272763 0.467169
vt 0.300366 0.541941
vt 0.300884 0.576549
vt 0.318851 0.608472
vt 0.305930 0.634613
vt 0.310851 0.589331
vt 0.363857 0.549722
vt 0.346317 0.529642
vt 0.323797 0.573356
vt 0.338857 0.555180
vt 0.318008 0.545187
vt 0.386329 0.567764
vt 0.390673 0.558742
vt 0.406410 0.576771
vt 0.347048 0.630171
vt 0.367053 0.643361
vt 0.338220 0.634313
vt 0.029389 0.855494
vt 0.075826 0.882208
vt 0.029423 0.910125
vt 0.393843 0.618550
vt 0.407127 0.596045
vt 0.403712 0.621539
vt 0.347880 0.580994
vt 0.331253 0.577883
vt 0.355556 0.559986
vt 0.370540 0.576039
vt 0.384406 0.597799
vt 0.328805 0.611085
vt 0.344802 0.606492
vt 0.366683 0.618384
vt 0.376428 0.632278
vt 0.429147 0.589078
vt 0.445359 0.600390
vt 0.421861 0.630323
vt 0.363637 0.596426
vt 0.074338 0.952265
vt 0.099929 0.774755
vt 0.075916 0.799039
vt 0.075797 0.761407
vt 0.075916 0.613687
vt 0.073175 0.560550
vt 0.093400 0.595420
vt 0.095971 0.246600
vt 0.075916 0.196021
vt 0.100872 0.177418
vt 0.091423 0.528935
vt 0.076205 0.466224
vt 0.098740 0.472976
vt 0.075916 0.669668
vt 0.098129 0.687031
vt 0.075916 0.720805
vt 0.029367 0.440003
vt 0.075983 0.409712
vt 0.029389 0.143782
vt 0.075916 0.114664
vt 0.075797 0.157604
vt 0.076036 0.840719
vt 0.029405 0.370328
vt 0.075916 0.355997
vt 0.164845 0.690445
vt 0.186036 0.697668
vt 0.172757 0.709288
vt 0.186865 0.453259
vt 0.168737 0.460835
vt 0.173220 0.413313
vt 0.172932 0.493728
vt 0.186036 0.238365
vt 0.172981 0.288166
vt 0.172809 0.237532
vt 0.186803 0.541483
vt 0.173051 0.578436
vt 0.172932 0.530594
vt 0.645470 0.029492
vt 0.645143 0.165457
vt 0.613144 0.145771
vt 0.001922 0.644496
vt 0.029389 0.669235
vt 0.003289 0.693713
vt 0.001857 0.573599
vt 0.029423 0.558582
vt 0.029389 0.613213
vt 0.029389 0.249327
vt 0.006536 0.210884
vt 0.029389 0.196429
vt 0.000977 0.042522
vt 0.010614 0.017946
vt 0.006036 0.098796
vt 0.452820 0.397160
vt 0.415065 0.356347
vt 0.464006 0.376781
vt 0.707435 0.059629
vt 0.757822 0.108580
vt 0.726618 0.148490
vt 0.596428 0.415476
vt 0.629270 0.415378
vt 0.592029 0.433339
vt 0.672229 0.365973
vt 0.668407 0.323741
vt 0.691444 0.334290
vt 0.548047 0.431093
vt 0.097798 0.396182
vt 0.117731 0.332411
vt 0.118332 0.384119
vt 0.117775 0.745187
vt 0.118051 0.798012
vt 0.308180 0.304802
vt 0.323617 0.384355
vt 0.283947 0.336056
vt 0.295637 0.277833
vt 0.322760 0.402921
vt 0.355544 0.421388
vt 0.316015 0.419126
vt 0.118278 0.151896
vt 0.117931 0.183727
vt 0.098265 0.321631
vt 0.118262 0.276773
vt 0.118383 0.599431
vt 0.118127 0.641764
vt 0.117014 0.573010
vt 0.118222 0.526792
vt 0.508850 0.008733
vt 0.556734 0.007942
vt 0.532519 0.130783
vt 0.657059 0.525891
vt 0.591824 0.555893
vt 0.577737 0.133633
vt 0.341980 0.262552
vt 0.297523 0.186843
vt 0.754980 0.286190
vt 0.703477 0.278247
vt 0.378717 0.490656
vt 0.382035 0.384936
vt 0.073123 0.510899
vt 0.804897 0.371832
vt 0.774646 0.434096
vt 0.688480 0.518727
vt 0.162048 0.404465
vt 0.151681 0.412502
vt 0.151681 0.369461
vt 0.165292 0.335329
vt 0.162048 0.267591
vt 0.162048 0.521955
vt 0.170213 0.628201
vt 0.151681 0.656936
vt 0.151681 0.605447
vt 0.152566 0.567934
vt 0.151681 0.529401
vt 0.151681 0.492576
vt 0.162048 0.192608
vt 0.173051 0.180895
vt 0.008177 0.450958
vt 0.029079 0.496589
vt 0.003682 0.500498
vt 0.387261 0.636401
vt 0.128065 0.439860
vt 0.395525 0.657133
vt 0.029716 0.086777
vt 0.073175 0.061527
vt 0.186036 0.020649
vt 0.173039 0.055353
vt 0.172757 0.009036
vt 0.559179 0.407977
vt 0.564542 0.400665
vt 0.616893 0.387806
vt 0.172757 0.369457
vt 0.162048 0.036644
vt 0.151681 0.008846
vt 0.162048 0.000977
vt 0.693178 0.599237
vt 0.699959 0.558784
vt 0.705656 0.612041
vt 0.734421 0.730821
vt 0.730875 0.769712
vt 0.723476 0.714236
vt 0.734421 0.619663
vt 0.716708 0.599492
vt 0.734421 0.560016
vt 0.359321 0.368114
vt 0.396453 0.319867
vt 0.649985 0.706775
vt 0.667861 0.694687
vt 0.668122 0.729625
vt 0.554450 0.154801
vt 0.656670 0.769957
vt 0.140236 0.866265
vt 0.128108 0.814286
vt 0.141007 0.793628
vt 0.693178 0.730387
vt 0.688973 0.770093
vt 0.572824 0.930902
vt 0.587091 0.967105
vt 0.550742 0.967615
vt 0.713494 0.717039
vt 0.705656 0.701456
vt 0.716966 0.652221
vt 0.535796 0.885243
vt 0.530382 0.828625
vt 0.550345 0.847648
vt 0.521510 0.863150
vt 0.521510 0.919955
vt 0.734421 0.679586
vt 0.118383 0.925712
vt 0.117808 0.881214
vt 0.602899 0.913659
vt 0.593392 0.900240
vt 0.602899 0.848054
vt 0.332518 0.697353
vt 0.267071 0.732136
vt 0.231174 0.791031
vt 0.128066 0.762057
vt 0.140429 0.735373
vt 0.151681 0.709331
vt 0.128060 0.551116
vt 0.140357 0.592456
vt 0.626985 0.371508
vt 0.445700 0.220940
vt 0.029367 0.030657
vt 0.076273 0.011676
vt 0.186036 0.155380
vt 0.186036 0.351626
vt 0.274050 0.330864
vt 0.274050 0.037424
vt 0.250644 0.027191
vt 0.094653 0.989246
vt 0.075916 0.300016
vt 0.499910 0.137824
vt 0.442219 0.029416
vt 0.186036 0.627519
vt 0.172809 0.124348
vt 0.029462 0.000977
vt 0.001922 0.325188
vt 0.029389 0.300449
vt 0.001922 0.272783
vt 0.804076 0.198042
vt 0.764024 0.265076
vt 0.701444 0.237413
vt 0.117877 0.061452
vt 0.118383 0.100408
vt 0.668154 0.655320
vt 0.770493 0.180527
vt 0.765984 0.148936
vt 0.820288 0.283059
vt 0.790563 0.295906
vt 0.800783 0.273757
vt 0.279305 0.259535
vt 0.118383 0.426688
vt 0.118373 0.466676
vt 0.434832 0.186639
vt 0.368220 0.077225
vt 0.473199 0.152134
vt 0.717792 0.177218
vt 0.682822 0.201092
vt 0.151681 0.032046
vt 0.151681 0.073708
vt 0.151681 0.452047
vt 0.162048 0.116616
vt 0.151681 0.320005
vt 0.542688 0.554197
vt 0.029591 0.734449
vt 0.460912 0.722947
vt 0.732321 0.195797
vt 0.354844 0.281972
vt 0.615286 0.916787
vt 0.606536 0.966694
vt 0.348880 0.299285
vt 0.649985 0.621075
vt 0.668139 0.600565
vt 0.688066 0.635216
vt 0.693178 0.678796
vt 0.544505 0.814375
vt 0.655434 0.559489
vt 0.677767 0.559387
vt 0.593392 0.780781
vt 0.572104 0.780659
vt 0.622796 0.817358
vt 0.602899 0.781193
vt 0.530382 0.968070
vt 0.544505 0.933409
vt 0.076220 0.999023
vt 0.029079 0.972118
vt 0.472573 0.373698
vt 0.128051 0.868576
vt 0.676955 0.259718
vt 0.662729 0.239895
vt 0.669871 0.282043
vt 0.550527 0.159733
vt 0.662572 0.322353
vt 0.121289 0.671893
vt 0.029389 0.799472
vt 0.091411 0.058570
vt 0.641586 0.769617
vt 0.641586 0.730821
vt 0.094653 0.011246
vt 0.075916 0.248878
vt 0.003682 0.968210
vt 0.001841 0.912041
vt 0.010614 0.995990
vt 0.128064 0.603356
vt 0.001922 0.857180
vt 0.001922 0.801015
vt 0.006797 0.737643
vt 0.005880 0.155226
vt 0.508267 0.395710
vt 0.497573 0.420597
vt 0.649743 0.389241
vt 0.117938 0.693263
vt 0.622519 0.862784
vt 0.117677 0.226012
vt 0.746112 0.471281
vt 0.151681 0.269760
vt 0.641586 0.619663
vt 0.641586 0.679586
vt 0.151681 0.154124
vt 0.151681 0.229230
vt 0.151681 0.192405
vt 0.132055 0.004966
vt 0.140315 0.000977
vt 0.708284 0.769898
vt 0.716346 0.559763
vt 0.626585 0.919955
vt 0.626585 0.966885
vt 0.530382 0.930177
vt 0.573130 0.900203
vt 0.535698 0.779982
vt 0.140520 0.929817
vt 0.641586 0.560016
vt 0.128628 0.936132
vt 0.623320 0.781029
vt 0.121289 0.291850
vt 0.215445 0.720830
vt 0.001775 0.384001
vt 0.324919 0.127826
vt 0.118383 0.840719
vt 0.453043 0.535269
vt 0.151681 0.116360
vt 0.000977 0.000977
vt 0.521510 0.780927
vt 0.521510 0.816791
vt 0.521510 0.966885
s 1
usemtl ceramic_pot
f 1/1/1 2/2/2 3/3/3
f 4/4/4 5/5/5 3/3/3
f 155/6/6 6/7/7 3/3/3
f 2/2/2 7/8/8 3/3/3
f 5/5/5 1/1/1 3/3/3
f 146/9/9 136/10/10 144/11/11
f 159/12/12 154/13/13 3/14/3
f 10/15/14 9/16/15 1/17/1
f 160/18/16 157/19/17 154/13/13
f 164/20/18 153/21/19 163/22/20
f 14/23/21 156/24/22 7/25/8
f 161/26/23 155/27/6 157/19/17
f 96/28/24 97/29/25 22/30/26
f 158/31/27 152/32/28 164/20/18
f 159/12/12 160/18/16 154/13/13
f 169/33/29 164/34/18 163/35/20
f 18/36/30 10/37/14 11/38/31
f 23/39/32 22/30/26 9/40/15
f 20/41/33 14/42/21 16/43/34
f 38/44/35 179/45/36 187/46/37
f 121/47/38 201/48/39 203/49/40
f 121/50/38 133/51/41 64/52/42
f 37/53/43 42/54/44 34/55/45
f 43/56/46 40/57/47 42/58/44
f 188/59/48 187/60/37 186/61/49
f 187/46/37 179/45/36 182/62/50
f 38/63/35 45/64/51 42/58/44
f 47/65/52 44/66/53 48/67/54
f 188/59/48 193/68/55 184/69/56
f 48/67/54 45/64/51 52/70/57
f 194/71/58 39/72/59 184/69/56
f 52/70/57 45/64/51 194/71/58
f 197/73/60 192/74/61 191/75/62
f 50/76/63 49/77/64 46/78/65
f 173/79/66 202/80/67 172/81/68
f 196/82/69 190/83/70 195/84/71
f 58/85/72 53/86/73 198/87/74
f 200/88/75 197/73/60 199/89/76
f 51/90/77 56/91/78 50/76/63
f 55/92/79 196/82/69 57/93/80
f 58/85/72 198/87/74 200/88/75
f 189/94/81 182/95/50 185/96/82
f 55/92/79 56/91/78 59/97/83
f 56/91/78 58/85/72 59/97/83
f 214/98/84 202/80/67 201/48/39
f 206/99/85 205/100/86 207/101/87
f 203/49/40 201/48/39 202/80/67
f 211/102/88 215/103/89 212/104/90
f 69/105/91 66/106/92 67/107/93
f 213/108/94 75/109/95 76/110/96
f 210/111/97 209/112/98 208/113/99
f 212/104/90 215/103/89 213/108/94
f 75/109/95 24/114/100 73/115/101
f 27/116/102 63/117/103 65/118/104
f 203/49/40 204/119/105 205/100/86
f 73/115/101 31/120/106 71/121/107
f 221/122/108 180/123/109 84/124/110
f 181/125/111 264/126/112 217/127/113
f 181/125/111 218/128/114 264/126/112
f 35/129/115 78/130/116 80/131/117
f 183/132/118 220/133/119 219/134/120
f 122/135/121 233/136/122 235/137/123
f 227/138/124 176/139/125 262/140/126
f 228/141/127 170/142/128 177/143/129
f 29/144/130 89/145/131 28/146/132
f 228/141/127 177/143/129 227/138/124
f 87/147/133 85/148/134 86/149/135
f 46/78/65 43/56/46 44/66/53
f 105/150/136 94/151/137 19/152/138
f 243/153/139 242/154/140 245/155/141
f 101/156/142 236/157/143 99/158/144
f 240/159/145 166/160/146 239/161/147
f 100/162/148 101/156/142 99/158/144
f 74/163/149 115/164/150 118/165/151
f 206/99/85 244/166/152 242/167/140
f 113/168/153 114/169/154 110/170/155
f 110/170/155 111/171/156 113/168/153
f 114/169/154 116/172/157 110/170/155
f 116/172/157 117/173/158 112/174/159
f 67/107/93 109/175/160 108/176/161
f 72/177/162 112/178/159 115/164/150
f 253/179/163 249/180/164 252/181/165
f 76/110/96 254/182/166 252/181/165
f 121/183/38 241/184/167 237/185/168
f 255/186/169 119/187/170 99/158/144
f 241/184/167 234/188/171 237/185/168
f 123/189/172 111/171/156 109/190/160
f 109/190/160 97/29/25 123/189/172
f 245/155/141 233/136/122 243/153/139
f 260/191/173 239/161/147 230/192/174
f 117/173/158 105/150/136 115/193/150
f 125/194/175 105/150/136 117/173/158
f 213/108/94 216/195/176 75/109/95
f 122/135/121 235/137/123 234/188/171
f 249/196/164 253/197/163 239/161/147
f 255/186/169 236/157/143 254/198/166
f 265/199/177 223/200/178 222/201/179
f 79/202/180 131/203/181 78/130/116
f 264/126/112 218/128/114 263/204/182
f 261/205/183 228/206/127 227/207/124
f 220/133/119 261/205/183 262/208/126
f 263/204/182 226/209/184 225/210/185
f 80/131/117 130/211/186 81/212/187
f 99/158/144 236/157/143 255/186/169
f 93/213/188 171/214/189 229/215/190
f 31/120/106 73/115/101 24/114/100
f 196/82/69 195/84/71 54/216/191
f 162/217/192 156/24/22 14/23/21
f 185/96/82 40/57/47 41/218/193
f 26/219/194 77/220/195 63/117/103
f 180/221/109 83/222/196 84/223/110
f 21/224/197 15/225/198 167/226/199
f 79/202/180 132/227/200 265/199/177
f 128/228/201 229/229/190 221/230/108
f 6/7/7 4/4/4 3/3/3
f 281/231/202 246/232/203 280/233/204
f 257/234/205 266/235/206 268/236/207
f 278/237/208 279/238/209 276/239/210
f 124/240/211 95/241/212 94/151/137
f 258/242/213 270/243/214 259/244/215
f 234/188/171 168/245/216 237/185/168
f 259/244/215 260/246/173 258/242/213
f 8/247/217 12/248/218 4/249/4
f 273/250/219 251/251/220 259/244/215
f 126/252/221 125/253/175 117/254/158
f 267/255/222 274/256/223 282/257/224
f 140/258/225 147/259/226 151/260/227
f 280/233/204 279/238/209 282/257/224
f 140/258/225 150/261/228 147/259/226
f 123/189/172 97/29/25 96/28/24
f 140/258/225 135/262/229 150/261/228
f 268/236/207 271/263/230 257/234/205
f 271/263/230 282/257/224 278/237/208
f 241/264/167 121/47/38 122/265/121
f 127/266/231 137/267/232 139/268/233
f 139/268/233 137/267/232 146/9/9
f 152/269/28 3/3/3 153/270/19
f 153/270/19 3/3/3 156/271/22
f 156/271/22 3/3/3 7/8/8
f 4/249/4 11/272/31 5/273/5
f 228/206/127 221/122/108 229/274/190
f 10/15/14 1/17/1 5/273/5
f 12/248/218 11/272/31 4/249/4
f 16/275/34 7/25/8 2/276/2
f 167/226/199 15/225/198 161/277/23
f 22/30/26 17/278/234 9/40/15
f 25/279/235 60/280/236 77/220/195
f 34/55/45 35/129/115 36/281/237
f 35/129/115 34/55/45 33/282/238
f 185/96/82 182/95/50 40/57/47
f 34/55/45 40/283/47 181/125/111
f 38/284/35 37/53/43 179/285/36
f 186/61/49 182/95/50 189/94/81
f 184/69/56 187/60/37 188/59/48
f 46/78/65 44/66/53 47/65/52
f 48/67/54 44/66/53 45/64/51
f 192/74/61 188/59/48 186/61/49
f 49/77/64 43/56/46 46/78/65
f 49/77/64 57/93/80 54/216/191
f 47/65/52 51/90/77 46/78/65
f 52/70/57 53/86/73 47/65/52
f 55/92/79 57/93/80 50/76/63
f 53/86/73 56/91/78 51/90/77
f 58/85/72 56/91/78 53/86/73
f 199/89/76 59/97/83 200/88/75
f 58/85/72 200/88/75 59/97/83
f 121/47/38 61/286/239 201/48/39
f 74/163/149 71/121/107 72/177/162
f 204/119/105 203/49/40 202/80/67
f 72/177/162 71/121/107 70/287/240
f 237/185/168 104/288/241 133/289/41
f 33/282/238 78/130/116 35/129/115
f 261/205/183 178/290/242 221/122/108
f 183/132/118 219/134/120 218/128/114
f 36/281/237 81/212/187 82/291/243
f 220/133/119 178/290/242 261/205/183
f 33/282/238 217/127/113 132/227/200
f 85/148/134 32/292/244 25/279/235
f 227/138/124 177/143/129 176/139/125
f 31/120/106 91/293/245 30/294/246
f 30/294/246 90/295/247 29/144/130
f 185/96/82 190/83/70 189/94/81
f 244/296/152 266/297/206 231/298/248
f 41/218/193 195/84/71 185/96/82
f 64/52/42 106/299/249 109/175/160
f 107/300/250 109/175/160 106/299/249
f 258/242/213 269/301/251 270/243/214
f 248/302/252 246/303/203 244/296/152
f 64/52/42 109/175/160 67/107/93
f 246/303/203 242/154/140 244/296/152
f 247/304/253 251/305/220 250/306/254
f 209/112/98 252/181/165 249/180/164
f 109/190/160 111/171/156 108/307/161
f 72/177/162 115/164/150 74/163/149
f 120/308/255 119/309/170 118/165/151
f 98/310/256 106/311/249 102/312/257
f 105/150/136 125/194/175 94/151/137
f 245/155/141 256/313/258 232/314/259
f 114/169/154 113/168/153 95/241/212
f 249/196/164 239/161/147 251/305/220
f 251/305/220 239/161/147 260/191/173
f 128/228/201 93/315/188 229/229/190
f 128/228/201 92/316/260 93/315/188
f 264/126/112 225/210/185 224/317/261
f 265/199/177 224/317/261 223/200/178
f 82/291/243 129/318/262 83/222/196
f 83/222/196 129/318/262 128/228/201
f 263/204/182 262/208/126 226/209/184
f 80/131/117 131/203/181 130/211/186
f 79/202/180 87/319/133 131/203/181
f 119/187/170 120/320/255 99/158/144
f 171/214/189 93/213/188 24/114/100
f 175/321/263 208/113/99 207/101/87
f 49/77/64 41/218/193 43/56/46
f 53/86/73 52/70/57 194/71/58
f 54/216/191 41/218/193 49/77/64
f 155/6/6 3/3/3 154/322/13
f 124/240/211 114/169/154 95/241/212
f 276/323/210 231/298/248 232/314/259
f 9/16/15 2/276/2 1/17/1
f 143/324/264 123/189/172 96/28/24
f 127/266/231 134/325/265 124/326/211
f 117/173/158 115/193/150 112/174/159
f 260/191/173 230/192/174 266/297/206
f 95/241/212 145/327/266 96/28/24
f 269/301/251 277/328/267 275/329/268
f 269/301/251 283/330/269 272/331/270
f 151/260/227 149/332/271 144/11/11
f 275/329/268 256/333/258 245/334/141
f 143/335/264 144/11/11 123/336/172
f 148/337/272 139/268/233 145/338/266
f 151/260/227 147/259/226 149/332/271
f 116/339/157 141/340/273 117/254/158
f 199/89/76 55/92/79 59/97/83
f 60/341/236 32/342/244 214/98/84
f 11/38/31 12/343/218 19/152/138 18/36/30
f 196/82/69 55/92/79 199/89/76
f 158/31/27 3/14/3 152/32/28
f 158/31/27 159/12/12 3/14/3
f 160/18/16 161/26/23 157/19/17
f 8/247/217 13/344/274 12/248/218
f 164/20/18 152/32/28 153/21/19
f 177/143/129 170/142/128 215/103/89 211/102/88
f 169/33/29 165/345/275 158/346/27
f 165/345/275 166/160/146 159/347/12
f 168/245/216 162/348/192 14/42/21
f 168/245/216 163/35/20 162/348/192
f 166/160/146 160/349/16 159/347/12
f 10/15/14 23/350/32 9/16/15
f 17/278/234 22/30/26 16/43/34
f 166/160/146 167/226/199 161/277/23
f 165/345/275 159/347/12 158/346/27
f 170/142/128 171/214/189 216/195/176 215/103/89
f 25/279/235 32/292/244 60/280/236
f 205/100/86 174/351/276 175/321/263 207/101/87
f 75/109/95 171/214/189 24/114/100
f 193/68/55 192/74/61 197/73/60 198/87/74
f 214/98/84 32/342/244 172/81/68
f 41/218/193 54/216/191 195/84/71
f 182/62/50 183/132/118 181/125/111
f 179/45/36 180/123/109 178/290/242
f 183/132/118 179/45/36 178/290/242
f 182/62/50 179/45/36 183/132/118
f 40/283/47 182/62/50 181/125/111
f 184/69/56 38/63/35 187/60/37
f 40/57/47 43/56/46 41/218/193
f 186/61/49 187/60/37 182/95/50
f 34/55/45 181/125/111 33/282/238
f 195/84/71 190/83/70 185/96/82
f 21/224/197 101/156/142 100/162/148
f 119/187/170 255/186/169 254/198/166
f 62/352/277 77/220/195 60/280/236
f 51/90/77 50/76/63 46/78/65
f 266/353/206 257/354/205 258/242/213 260/246/173
f 52/70/57 47/65/52 48/67/54
f 199/89/76 190/83/70 196/82/69
f 50/76/63 56/91/78 55/92/79
f 206/99/85 207/101/87 208/113/99 209/112/98
f 200/88/75 198/87/74 197/73/60
f 128/228/201 129/318/262 92/316/260
f 60/280/236 61/355/239 62/352/277
f 60/341/236 214/98/84 61/286/239
f 252/181/165 212/104/90 213/108/94
f 75/109/95 73/115/101 74/163/149 76/110/96
f 252/181/165 209/112/98 212/104/90
f 68/356/278 66/106/92 69/105/91
f 63/117/103 64/52/42 67/107/93 65/118/104
f 209/112/98 210/111/97 211/102/88 212/104/90
f 28/146/132 66/106/92 68/356/278 29/144/130
f 213/108/94 215/103/89 216/195/176
f 26/219/194 25/279/235 77/220/195
f 70/287/240 69/105/91 72/177/162
f 171/214/189 75/109/95 216/195/176
f 252/181/165 213/108/94 76/110/96
f 204/119/105 173/79/66 174/351/276 205/100/86
f 99/158/144 120/320/255 100/162/148
f 27/116/102 65/118/104 66/106/92 28/146/132
f 32/342/244 222/357/179 223/358/178 172/81/68
f 259/244/215 251/251/220 260/246/173
f 221/122/108 178/290/242 180/123/109
f 180/221/109 37/53/43 83/222/196
f 37/53/43 36/281/237 82/291/243
f 35/129/115 80/131/117 81/212/187
f 33/282/238 79/202/180 78/130/116
f 33/282/238 132/227/200 79/202/180
f 85/359/134 222/357/179 32/342/244
f 17/360/234 16/275/34 2/276/2
f 172/81/68 223/358/178 224/361/261 173/79/66
f 174/351/276 225/362/185 226/363/184 175/321/263
f 90/295/247 89/145/131 29/144/130
f 86/149/135 26/219/194 27/116/102 88/364/279
f 88/364/279 27/116/102 28/146/132 89/145/131
f 176/139/125 175/321/263 226/363/184 262/140/126
f 171/214/189 170/142/128 228/141/127 229/215/190
f 169/33/29 232/314/259 231/298/248 165/345/275
f 233/136/122 169/33/29 163/35/20
f 230/192/174 166/160/146 165/345/275
f 231/298/248 230/192/174 165/345/275
f 19/152/138 13/365/274 103/366/280 105/150/136
f 20/41/33 168/245/216 14/42/21
f 20/41/33 16/43/34 98/310/256 102/312/257
f 235/137/123 233/136/122 163/35/20
f 18/36/30 94/151/137 95/241/212
f 238/367/281 101/156/142 167/226/199
f 168/245/216 234/188/171 235/137/123 163/35/20
f 101/156/142 238/367/281 236/157/143
f 118/165/151 119/309/170 76/110/96 74/163/149
f 233/136/122 232/314/259 169/33/29
f 247/368/253 244/166/152 206/99/85 209/112/98
f 242/167/140 122/265/121 203/49/40 206/99/85
f 101/156/142 21/224/197 167/226/199
f 139/268/233 150/369/228 134/325/265 127/266/231
f 67/107/93 108/176/161 110/370/155
f 246/303/203 245/155/141 242/154/140
f 69/105/91 67/107/93 110/370/155
f 209/112/98 249/180/164 247/368/253
f 238/367/281 252/371/165 254/198/166 236/157/143
f 251/305/220 247/304/253 249/196/164
f 130/211/186 129/318/262 82/291/243 81/212/187
f 253/197/163 240/159/145 239/161/147
f 243/153/139 233/136/122 122/135/121
f 233/136/122 245/155/141 232/314/259
f 244/296/152 250/306/254 266/297/206
f 143/335/264 146/9/9 144/11/11
f 79/202/180 222/201/179 87/319/133
f 132/227/200 217/127/113 265/199/177
f 131/203/181 87/319/133 86/372/135
f 278/373/208 277/328/267 258/242/213 271/374/230
f 129/318/262 130/211/186 90/375/247
f 130/211/186 131/203/181 88/376/279
f 130/211/186 88/376/279 89/377/131
f 80/131/117 78/130/116 131/203/181
f 225/210/185 264/126/112 263/204/182
f 217/127/113 264/126/112 265/199/177
f 130/211/186 89/377/131 90/375/247
f 228/206/127 261/205/183 221/122/108
f 15/225/198 21/224/197 13/365/274
f 172/81/68 202/80/67 214/98/84
f 57/93/80 196/82/69 54/216/191
f 201/48/39 61/286/239 214/98/84
f 198/87/74 53/86/73 194/71/58
f 155/27/6 15/378/198 6/379/7
f 161/26/23 15/378/198 155/27/6
f 77/220/195 62/352/277 63/117/103
f 155/27/6 154/13/13 157/19/17
f 244/296/152 231/298/248 248/302/252
f 256/313/258 276/323/210 232/314/259
f 146/9/9 137/267/232 136/10/10
f 270/243/214 272/331/270 273/250/219 259/244/215
f 136/10/10 140/258/225 151/260/227
f 144/11/11 136/10/10 151/260/227
f 250/380/254 251/251/220 273/250/219 274/256/223
f 248/381/252 279/238/209 280/233/204 246/232/203
f 274/256/223 267/255/222 250/380/254
f 123/336/172 144/11/11 149/332/271
f 275/329/268 277/328/267 256/333/258
f 135/382/229 114/383/154 124/326/211 134/325/265
f 116/339/157 142/384/282 141/340/273
f 276/239/210 279/238/209 248/381/252
f 141/340/273 140/258/225 138/385/283 126/252/221
f 268/236/207 282/257/224 271/263/230
f 268/236/207 267/255/222 282/257/224
f 61/355/239 121/50/38 64/52/42 62/352/277
f 123/336/172 149/332/271 111/386/156
f 140/258/225 141/340/273 142/384/282
f 283/330/269 275/329/268 281/231/202
f 137/267/232 126/252/221 138/385/283
f 96/28/24 145/327/266 143/324/264
f 8/247/217 4/249/4 6/387/7
f 5/273/5 11/272/31 10/15/14
f 276/388/210 256/333/258 277/328/267 278/373/208
f 13/344/274 8/247/217 6/387/7 15/389/198
f 9/16/15 17/360/234 2/276/2
f 70/287/240 30/294/246 29/144/130 68/356/278
f 16/275/34 14/23/21 7/25/8
f 113/390/153 148/337/272 145/338/266
f 10/37/14 18/36/30 23/39/32
f 13/365/274 19/152/138 12/343/218
f 166/160/146 161/277/23 160/349/16
f 164/20/18 169/391/29 158/31/27
f 63/117/103 27/116/102 26/219/194
f 64/52/42 63/117/103 62/352/277
f 210/111/97 208/113/99 175/321/263 176/139/125
f 30/294/246 70/287/240 71/121/107 31/120/106
f 176/139/125 177/143/129 211/102/88 210/111/97
f 156/24/22 162/217/192 163/22/20 153/21/19
f 179/45/36 37/392/43 180/123/109
f 36/281/237 37/53/43 34/55/45
f 39/72/59 45/64/51 38/63/35
f 44/66/53 43/56/46 42/58/44
f 42/54/44 40/283/47 34/55/45
f 42/58/44 45/64/51 44/66/53
f 192/74/61 193/68/55 188/59/48
f 190/83/70 191/75/62 189/94/81
f 193/68/55 194/71/58 184/69/56
f 194/71/58 45/64/51 39/72/59
f 53/86/73 51/90/77 47/65/52
f 49/77/64 50/76/63 57/93/80
f 190/83/70 197/73/60 191/75/62
f 199/89/76 197/73/60 190/83/70
f 278/237/208 282/257/224 279/238/209
f 66/106/92 65/118/104 67/107/93
f 73/115/101 71/121/107 74/163/149
f 205/100/86 206/99/85 203/49/40
f 70/287/240 68/356/278 69/105/91
f 25/279/235 26/219/194 86/149/135 85/148/134
f 102/312/257 106/311/249 133/289/41
f 184/69/56 39/72/59 38/63/35
f 36/281/237 35/129/115 81/212/187
f 218/128/114 181/125/111 183/132/118
f 37/53/43 82/291/243 83/222/196
f 183/132/118 178/290/242 220/133/119
f 33/282/238 181/125/111 217/127/113
f 173/79/66 224/361/261 225/362/185 174/351/276
f 92/393/260 31/120/106 24/114/100 93/213/188
f 91/293/245 90/295/247 30/294/246
f 92/393/260 91/293/245 31/120/106
f 222/201/179 79/202/180 265/199/177
f 23/39/32 18/36/30 95/241/212 96/28/24
f 167/226/199 166/160/146 240/159/145 238/367/281
f 239/161/147 166/160/146 230/192/174
f 103/366/280 13/365/274 21/224/197 100/162/148
f 241/184/167 122/135/121 234/188/171
f 98/310/256 16/43/34 22/30/26 97/29/25
f 110/370/155 112/178/159 72/177/162 69/105/91
f 23/39/32 96/28/24 22/30/26
f 204/119/105 202/80/67 173/79/66
f 121/47/38 203/49/40 122/265/121
f 37/53/43 38/284/35 42/54/44
f 107/394/250 98/310/256 97/29/25 109/190/160
f 247/304/253 250/306/254 244/296/152
f 111/171/156 110/170/155 108/307/161
f 110/170/155 116/172/157 112/174/159
f 242/167/140 243/395/139 122/265/121
f 64/52/42 133/51/41 106/299/249
f 76/110/96 119/309/170 254/182/166
f 102/312/257 133/289/41 104/288/241
f 98/310/256 107/394/250 106/311/249
f 124/326/211 125/253/175 137/267/232 127/266/231
f 126/252/221 137/267/232 125/253/175
f 105/150/136 103/366/280 118/396/151 115/193/150
f 103/366/280 100/162/148 120/320/255 118/396/151
f 272/331/270 270/243/214 269/301/251
f 262/208/126 263/204/182 219/134/120 220/133/119
f 121/183/38 237/185/168 133/289/41
f 84/223/110 128/228/201 221/230/108
f 218/128/114 219/134/120 263/204/182
f 224/317/261 265/199/177 264/126/112
f 168/245/216 20/41/33 104/288/241 237/185/168
f 129/318/262 91/397/245 92/316/260
f 262/208/126 261/205/183 227/207/124
f 129/318/262 90/375/247 91/397/245
f 131/203/181 86/372/135 88/376/279
f 102/312/257 104/288/241 20/41/33
f 240/159/145 253/197/163 252/371/165 238/367/281
f 141/340/273 126/252/221 117/254/158
f 87/147/133 222/398/179 85/148/134
f 186/61/49 189/94/81 191/75/62 192/74/61
f 113/399/153 111/386/156 147/259/226 148/400/272
f 19/152/138 94/151/137 18/36/30
f 198/87/74 194/71/58 193/68/55
f 266/297/206 230/192/174 231/298/248
f 276/323/210 248/302/252 231/298/248
f 125/194/175 124/240/211 94/151/137
f 95/241/212 113/168/153 145/327/266
f 269/301/251 258/242/213 277/328/267
f 283/330/269 269/301/251 275/329/268
f 245/334/141 246/232/203 281/231/202 275/329/268
f 146/9/9 143/335/264 145/338/266 139/268/233
f 266/235/206 250/380/254 267/255/222 268/236/207
f 149/332/271 147/259/226 111/386/156
f 280/233/204 274/256/223 272/331/270 283/330/269
f 84/223/110 83/222/196 128/228/201
f 274/256/223 280/233/204 282/257/224
f 140/258/225 142/384/282 135/262/229
f 283/330/269 281/231/202 280/233/204
f 147/259/226 150/261/228 148/400/272
f 274/256/223 273/250/219 272/331/270
f 148/337/272 150/369/228 139/268/233
f 150/369/228 135/382/229 134/325/265
f 142/384/282 116/339/157 114/401/154 135/262/229
f 136/10/10 138/385/283 140/258/225
f 257/354/205 271/374/230 258/242/213
f 137/267/232 138/385/283 136/10/10
