# Blender v3.x OBJ File
mtllib cube.mtl
o Cube

v -1.000000 -1.000000 1.000000
v 1.000000 -1.000000 1.000000
v -1.000000 1.000000 1.000000
v 1.000000 1.000000 1.000000
v -1.000000 -1.000000 -1.000000
v 1.000000 -1.000000 -1.000000
v -1.000000 1.000000 -1.000000
v 1.000000 1.000000 -1.000000

vt 0.000000 0.000000
vt 1.000000 0.000000
vt 0.000000 1.000000
vt 1.000000 1.000000

vn 0.0000 0.0000 1.0000
vn 0.0000 0.0000 -1.0000
vn 0.0000 1.0000 0.0000
vn 0.0000 -1.0000 0.0000
vn 1.0000 0.0000 0.0000
vn -1.0000 0.0000 0.0000

usemtl None
s off
f 1/1/1 2/2/1 3/3/1
f 2/2/1 4/4/1 3/3/1
f 5/1/2 7/3/2 6/2/2
f 6/2/2 7/3/2 8/4/2
f 3/1/3 4/2/3 7/3/3
f 4/2/3 8/4/3 7/3/3
f 1/1/4 5/2/4 2/3/4
f 2/3/4 5/2/4 6/4/4
f 2/1/5 6/2/5 4/3/5
f 4/3/5 6/2/5 8/4/5
f 1/1/6 3/2/6 5/3/6
f 3/2/6 7/4/6 5/3/6
